<?xml version="1.0" encoding="utf-8"?>
<!-- Generator: Adobe Illustrator 26.2.1, SVG Export Plug-In . SVG Version: 6.00 Build 0)  -->
<svg version="1.1" id="Layer_1" xmlns="http://www.w3.org/2000/svg" xmlns:xlink="http://www.w3.org/1999/xlink" x="0px" y="0px"
	 width="245.8px" height="47.5px" viewBox="0 0 245.8 47.5" style="enable-background:new 0 0 245.8 47.5;" xml:space="preserve">
<style type="text/css">
	.st0{fill:#000048;}
	.st1{clip-path:url(#SVGID_00000139267875175667176120000000297395832746803597_);}
	.st2{fill:#E30303;}
	.st3{fill:#FE8B00;}
	.st4{fill:#FEEC00;}
	.st5{fill:#004DFE;}
	.st6{fill:#750786;}
	.st7{fill:#008026;}
	.st8{clip-path:url(#SVGID_00000075854112303413223990000014892112469025266817_);}
	.st9{fill:#E71A03;}
	.st10{fill:#61139A;}
</style>
<path class="st0" d="M158.7,12.4h3.6v21.9h-3.6V12.4z M145.4,11.9c-2.4,0-4.6,0.9-6.4,2.3v-1.8h-3.6v21.9h3.6V22
	c0-3.5,2.9-6.4,6.4-6.4c3.5,0,6.4,2.9,6.4,6.4v12.3h3.6V22C155.4,16.4,150.9,12,145.4,11.9L145.4,11.9z M128.1,12.4h3.6v21l0,0
	c0,6.3-5.5,11.4-11.4,11.4c-5.4,0-9.4-3.3-10.9-7.9h3.9c1.2,2.5,3.6,4.3,6.9,4.3c3.9,0,7.8-3.5,7.8-7.8v-1.8c-2,1.9-4.8,3.1-7.8,3.1
	c-6.3,0-11.4-5.1-11.4-11.4s5.1-11.4,11.4-11.4c3,0,5.7,1.2,7.8,3.1L128.1,12.4L128.1,12.4z M128.1,23.4c0-4.3-3.5-7.8-7.8-7.8
	s-7.8,3.5-7.8,7.8s3.5,7.8,7.8,7.8S128.1,27.6,128.1,23.4z M71.7,15.6c3.1,0,5.8,1.8,7,4.5h3.9c-1.4-4.7-5.8-8.1-10.9-8.1
	c-6.3,0-11.4,5.1-11.4,11.4s5.1,11.4,11.4,11.4c5.2,0,9.5-3.4,10.9-8.1h-3.9c-1.2,2.6-3.9,4.5-7,4.5c-4.3,0-7.8-3.5-7.8-7.8
	S67.4,15.6,71.7,15.6L71.7,15.6z M107.1,23.4c0,6.3-5.1,11.4-11.4,11.4c-6.3,0-11.4-5.1-11.4-11.4s5.1-11.4,11.4-11.4
	C102,11.9,107.1,17.1,107.1,23.4z M103.5,23.4c0-4.3-3.5-7.8-7.8-7.8S88,19.1,88,23.4s3.5,7.8,7.8,7.8S103.5,27.6,103.5,23.4z
	 M222.6,11.9c-2.4,0-4.6,0.9-6.4,2.3v-1.8h-3.6v21.8h3.6V22c0-3.5,2.9-6.4,6.4-6.4s6.4,2.9,6.4,6.4v12.3h3.6V22
	C232.6,16.4,228.2,11.9,222.6,11.9z M205.3,12.4h3.6v21.8h-3.6v-2.6c-2,1.9-4.8,3.1-7.8,3.1c-6.3,0-11.4-5.1-11.4-11.4
	s5.1-11.4,11.4-11.4l0,0c3,0,5.7,1.2,7.8,3.1C205.3,15,205.3,12.4,205.3,12.4z M205.3,23.4c0-4.3-3.5-7.8-7.8-7.8
	c-4.3,0-7.8,3.5-7.8,7.8s3.5,7.8,7.8,7.8C201.9,31.1,205.3,27.6,205.3,23.4z M244.8,16.1v-3.6h-5.5v-6h-3.6V27c0,4,3.3,7.3,7.3,7.3
	h1.8v-3.6H243c-2,0-3.6-1.6-3.6-3.6V16.1H244.8L244.8,16.1z M160.5,4.6c-1.3,0-2.4,1.1-2.4,2.4s1.1,2.4,2.4,2.4s2.4-1.1,2.4-2.4
	S161.9,4.6,160.5,4.6z M184.2,12.4H166v3.6h13.5L166,30.6v3.6h18.2v-3.6h-13.5l13.5-14.6V12.4z"/>
<g>
	<g>
		<defs>
			<path id="SVGID_1_" d="M32.2,36.1l-15.6,9.3L1.5,23.7h22L32.2,36.1L32.2,36.1z M1.5,23.7h22l8.8-12.4L16.6,2L1.5,23.7L1.5,23.7z"
				/>
		</defs>
		<clipPath id="SVGID_00000176739257055486299320000004374731577619330469_">
			<use xlink:href="#SVGID_1_"  style="overflow:visible;"/>
		</clipPath>
		<g style="clip-path:url(#SVGID_00000176739257055486299320000004374731577619330469_);">
			<g>
				<path class="st2" d="M45.7,38.3c0,2.3,0,4.6,0,6.9c0,0.4-0.1,0.5-0.5,0.5c-14.1,0-28.2,0-42.3,0c-11.4,0-22.8,0-34.2,0
					c-0.4,0-0.5-0.1-0.5-0.5c0-2.3,0-4.6,0-6.9c0.2,0,0.4,0,0.7,0c25.4,0,50.8,0,76.1,0C45.2,38.3,45.4,38.3,45.7,38.3L45.7,38.3z"
					/>
				<path class="st3" d="M45.7,38.3c-0.2,0-0.4,0-0.7,0c-25.4,0-50.8,0-76.1,0c-0.2,0-0.4,0-0.7,0V31c0.3,0,0.5,0,0.8,0
					c25.3,0,50.6,0,75.9,0c0.3,0,0.5,0,0.8,0L45.7,38.3L45.7,38.3z"/>
				<path class="st4" d="M45.7,31c-0.3,0-0.5,0-0.8,0C19.6,31-5.7,31-31,31c-0.3,0-0.5,0-0.8,0v-7.3c0.2,0.1,0.5,0.1,0.7,0.1
					c25.3,0,50.7,0,76,0c0.2,0,0.5,0,0.7-0.1L45.7,31L45.7,31z"/>
				<path class="st5" d="M45.7,9.3v7.3c-0.3,0-0.5,0-0.8,0c-25.3,0-50.6,0-75.9,0c-0.3,0-0.5,0-0.8,0V9.3c0.2,0,0.4,0,0.6,0
					c25.4,0,50.8,0,76.3,0C45.3,9.3,45.5,9.3,45.7,9.3L45.7,9.3z"/>
				<path class="st6" d="M45.7,9.3c-0.2,0-0.4,0-0.6,0c-25.4,0-50.8,0-76.3,0c-0.2,0-0.4,0-0.6,0c0-2.3,0-4.6,0-6.9
					c0-0.4,0.1-0.5,0.5-0.5c14.2,0,28.3,0,42.5,0c11.3,0,22.7,0,34,0c0.4,0,0.5,0.1,0.5,0.5C45.7,4.7,45.7,7,45.7,9.3L45.7,9.3z"/>
				<path class="st7" d="M-31.8,16.5c0.3,0,0.5,0,0.8,0c25.3,0,50.6,0,75.9,0c0.3,0,0.5,0,0.8,0v7.2c-0.2,0.1-0.5,0.1-0.7,0.1
					c-25.3,0-50.7,0-76,0c-0.2,0-0.5,0-0.7-0.1L-31.8,16.5L-31.8,16.5z"/>
			</g>
		</g>
	</g>
	<g>
		<defs>
			<path id="SVGID_00000083801438804845466340000013397685940689616019_" d="M38.2,45.4H16.6L53,23.7C53,23.7,38.2,45.4,38.2,45.4z
				 M38.2,2H16.6L53,23.7C53,23.7,38.2,2,38.2,2z"/>
		</defs>
		<clipPath id="SVGID_00000168818588822920898880000002031785022856521375_">
			<use xlink:href="#SVGID_00000083801438804845466340000013397685940689616019_"  style="overflow:visible;"/>
		</clipPath>
		<g style="clip-path:url(#SVGID_00000168818588822920898880000002031785022856521375_);">
			<g>
				<path class="st3" d="M16.1,16.3V8.9l0.1,0c0.3,0,0.5,0,0.8,0c25.4,0,50.9,0,76.3,0c0.3,0,0.5,0,0.8,0l0.1,0v7.4
					c-0.3,0-0.5,0-0.8,0c-25.5,0-51.1,0-76.6,0C16.7,16.2,16.4,16.2,16.1,16.3z"/>
				<path class="st4" d="M16.1,16.3c0.3,0,0.5,0,0.8,0c25.5,0,51.1,0,76.6,0c0.3,0,0.5,0,0.8,0v7.4c-0.8,0-1.6-0.1-2.4-0.1
					c-25,0-50,0-75.1,0c-0.2,0-0.5,0-0.7,0.1L16.1,16.3L16.1,16.3z"/>
				<path class="st5" d="M94.3,30.9v7.4l-0.1,0c-0.2,0-0.4,0-0.7,0c-25.5,0-51.1,0-76.6,0c-0.2,0-0.4,0-0.7,0l-0.1,0
					c0-2.5,0-4.9,0-7.4c0.3,0,0.5,0,0.8,0c25.5,0,51.1,0,76.6,0C93.7,30.9,94,30.9,94.3,30.9L94.3,30.9z"/>
				<path class="st2" d="M94.2,8.9c-0.3,0-0.5,0-0.8,0c-25.4,0-50.9,0-76.3,0c-0.3,0-0.5,0-0.8,0l-0.1-0.1c0-2.3,0-4.5,0-6.8
					c0-0.4,0.1-0.5,0.5-0.5c14.2,0,28.5,0,42.7,0c11.5,0,23,0,34.5,0c0.4,0,0.5,0.1,0.5,0.5c0,2.3,0,4.5,0,6.8L94.2,8.9L94.2,8.9z"
					/>
				<path class="st6" d="M16.3,38.3c0.2,0,0.4,0,0.7,0c25.5,0,51.1,0,76.6,0c0.2,0,0.4,0,0.7,0l0.1,0.1c0,2.3,0,4.5,0,6.8
					c0,0.4-0.1,0.5-0.5,0.5c-14.3,0-28.6,0-42.9,0c-11.4,0-22.9,0-34.3,0c-0.4,0-0.5-0.1-0.5-0.5c0-2.3,0-4.5,0-6.8L16.3,38.3
					L16.3,38.3z"/>
				<path class="st7" d="M94.3,30.9c-0.3,0-0.5,0-0.8,0c-25.5,0-51.1,0-76.6,0c-0.3,0-0.5,0-0.8,0v-7.2c0.2-0.1,0.5-0.1,0.7-0.1
					c25,0,50,0,75.1,0c0.8,0,1.6,0,2.4,0.1V30.9z"/>
				<path class="st9" d="M16.1,8.8l0.1,0.1l-0.1,0V8.8z"/>
				<path class="st9" d="M94.2,8.9l0.1-0.1v0.1L94.2,8.9z"/>
				<path class="st10" d="M16.3,38.3l-0.1,0.1v-0.1L16.3,38.3z"/>
				<path class="st10" d="M94.3,38.3l-0.1-0.1l0.1,0V38.3z"/>
			</g>
		</g>
	</g>
</g>
</svg>
